<mxfile host="65bd71144e">
    <diagram id="Vtc_224mPMF4IDlBUHgL" name="Page-3">
        <mxGraphModel dx="584" dy="478" grid="1" gridSize="10" guides="1" tooltips="1" connect="1" arrows="1" fold="1" page="1" pageScale="1" pageWidth="850" pageHeight="1100" math="0" shadow="0">
            <root>
                <mxCell id="FeYURNxLefExpCW_N5Zf-0"/>
                <mxCell id="FeYURNxLefExpCW_N5Zf-1" parent="FeYURNxLefExpCW_N5Zf-0"/>
                <mxCell id="n1YlAc-bE6uVgi2pLonk-1" style="edgeStyle=none;html=1;fontColor=default;startArrow=none;startFill=0;endArrow=halfCircle;endFill=0;startSize=12;endSize=6;strokeColor=#000000;" parent="FeYURNxLefExpCW_N5Zf-1" source="FeYURNxLefExpCW_N5Zf-2" edge="1">
                    <mxGeometry relative="1" as="geometry">
                        <mxPoint x="240" y="240" as="targetPoint"/>
                    </mxGeometry>
                </mxCell>
                <mxCell id="n1YlAc-bE6uVgi2pLonk-2" style="edgeStyle=none;html=1;fontColor=default;startArrow=none;startFill=0;endArrow=halfCircle;endFill=0;startSize=12;endSize=6;strokeColor=#000000;" parent="FeYURNxLefExpCW_N5Zf-1" source="FeYURNxLefExpCW_N5Zf-2" edge="1">
                    <mxGeometry relative="1" as="geometry">
                        <mxPoint x="300" y="280" as="targetPoint"/>
                    </mxGeometry>
                </mxCell>
                <mxCell id="FeYURNxLefExpCW_N5Zf-2" value="«component»&lt;br&gt;&lt;b&gt;LineageExtractor&lt;/b&gt;" style="html=1;dropTarget=0;labelBackgroundColor=none;fontColor=default;fillColor=default;" parent="FeYURNxLefExpCW_N5Zf-1" vertex="1">
                    <mxGeometry x="150" y="320" width="180" height="90" as="geometry"/>
                </mxCell>
                <mxCell id="FeYURNxLefExpCW_N5Zf-3" value="" style="shape=module;jettyWidth=8;jettyHeight=4;labelBackgroundColor=none;fontColor=default;fillColor=default;" parent="FeYURNxLefExpCW_N5Zf-2" vertex="1">
                    <mxGeometry x="1" width="20" height="20" relative="1" as="geometry">
                        <mxPoint x="-27" y="7" as="offset"/>
                    </mxGeometry>
                </mxCell>
                <mxCell id="n1YlAc-bE6uVgi2pLonk-4" style="edgeStyle=none;html=1;fontColor=default;startArrow=none;startFill=0;endArrow=halfCircle;endFill=0;startSize=12;endSize=6;strokeColor=#000000;" parent="FeYURNxLefExpCW_N5Zf-1" source="FeYURNxLefExpCW_N5Zf-4" edge="1">
                    <mxGeometry relative="1" as="geometry">
                        <mxPoint x="515" y="290" as="targetPoint"/>
                    </mxGeometry>
                </mxCell>
                <mxCell id="FeYURNxLefExpCW_N5Zf-4" value="«component»&lt;br&gt;&lt;b&gt;AnnotationPropagator&lt;/b&gt;" style="html=1;dropTarget=0;labelBackgroundColor=none;fontColor=default;fillColor=default;" parent="FeYURNxLefExpCW_N5Zf-1" vertex="1">
                    <mxGeometry x="425" y="320" width="180" height="90" as="geometry"/>
                </mxCell>
                <mxCell id="FeYURNxLefExpCW_N5Zf-5" value="" style="shape=module;jettyWidth=8;jettyHeight=4;labelBackgroundColor=none;fontColor=default;fillColor=default;" parent="FeYURNxLefExpCW_N5Zf-4" vertex="1">
                    <mxGeometry x="1" width="20" height="20" relative="1" as="geometry">
                        <mxPoint x="-27" y="7" as="offset"/>
                    </mxGeometry>
                </mxCell>
                <mxCell id="1ur6f1crXchny40qrN8z-4" style="edgeStyle=none;html=1;fontColor=default;startArrow=none;startFill=0;endArrow=oval;endFill=0;startSize=12;endSize=6;strokeColor=#000000;" parent="FeYURNxLefExpCW_N5Zf-1" source="1ur6f1crXchny40qrN8z-0" edge="1">
                    <mxGeometry relative="1" as="geometry">
                        <mxPoint x="240" y="240" as="targetPoint"/>
                    </mxGeometry>
                </mxCell>
                <mxCell id="1ur6f1crXchny40qrN8z-0" value="«system»&lt;br&gt;&lt;b&gt;Airflow&lt;/b&gt;" style="html=1;dropTarget=0;labelBackgroundColor=none;fontColor=default;fillColor=default;" parent="FeYURNxLefExpCW_N5Zf-1" vertex="1">
                    <mxGeometry x="150" y="80" width="180" height="90" as="geometry"/>
                </mxCell>
                <mxCell id="1ur6f1crXchny40qrN8z-1" value="" style="shape=module;jettyWidth=8;jettyHeight=4;labelBackgroundColor=none;fontColor=default;fillColor=default;" parent="1ur6f1crXchny40qrN8z-0" vertex="1">
                    <mxGeometry x="1" width="20" height="20" relative="1" as="geometry">
                        <mxPoint x="-27" y="7" as="offset"/>
                    </mxGeometry>
                </mxCell>
                <mxCell id="ntJ0tcVYLiUPrAFrg5_K-1" style="edgeStyle=none;html=1;fontColor=default;startArrow=none;startFill=0;endArrow=oval;endFill=0;startSize=12;endSize=6;strokeColor=#000000;" parent="FeYURNxLefExpCW_N5Zf-1" source="1ur6f1crXchny40qrN8z-2" edge="1">
                    <mxGeometry relative="1" as="geometry">
                        <mxPoint x="515" y="210" as="targetPoint"/>
                    </mxGeometry>
                </mxCell>
                <mxCell id="1ur6f1crXchny40qrN8z-2" value="«system»&lt;br&gt;&lt;b&gt;Marquez&lt;/b&gt;" style="html=1;dropTarget=0;labelBackgroundColor=none;fontColor=default;fillColor=default;" parent="FeYURNxLefExpCW_N5Zf-1" vertex="1">
                    <mxGeometry x="425" y="80" width="180" height="90" as="geometry"/>
                </mxCell>
                <mxCell id="1ur6f1crXchny40qrN8z-3" value="" style="shape=module;jettyWidth=8;jettyHeight=4;labelBackgroundColor=none;fontColor=default;fillColor=default;" parent="1ur6f1crXchny40qrN8z-2" vertex="1">
                    <mxGeometry x="1" width="20" height="20" relative="1" as="geometry">
                        <mxPoint x="-27" y="7" as="offset"/>
                    </mxGeometry>
                </mxCell>
                <mxCell id="ntJ0tcVYLiUPrAFrg5_K-0" value="IJobRuns" style="text;html=1;align=center;verticalAlign=middle;resizable=0;points=[];autosize=1;strokeColor=none;fillColor=none;" parent="FeYURNxLefExpCW_N5Zf-1" vertex="1">
                    <mxGeometry x="170" y="170" width="70" height="20" as="geometry"/>
                </mxCell>
                <mxCell id="n1YlAc-bE6uVgi2pLonk-0" value="IOpenLineage" style="text;html=1;align=center;verticalAlign=middle;resizable=0;points=[];autosize=1;strokeColor=none;fillColor=none;fontColor=#000000;" parent="FeYURNxLefExpCW_N5Zf-1" vertex="1">
                    <mxGeometry x="515" y="170" width="90" height="20" as="geometry"/>
                </mxCell>
                <mxCell id="n1YlAc-bE6uVgi2pLonk-3" value="" style="endArrow=oval;html=1;fontColor=default;startSize=12;endSize=6;strokeColor=#000000;endFill=0;" parent="FeYURNxLefExpCW_N5Zf-1" edge="1">
                    <mxGeometry width="50" height="50" relative="1" as="geometry">
                        <mxPoint x="510" y="210" as="sourcePoint"/>
                        <mxPoint x="300" y="280" as="targetPoint"/>
                    </mxGeometry>
                </mxCell>
                <mxCell id="n1YlAc-bE6uVgi2pLonk-5" value="" style="endArrow=oval;html=1;fontColor=default;startSize=12;endSize=6;strokeColor=#000000;endFill=0;" parent="FeYURNxLefExpCW_N5Zf-1" edge="1">
                    <mxGeometry width="50" height="50" relative="1" as="geometry">
                        <mxPoint x="515" y="215" as="sourcePoint"/>
                        <mxPoint x="514.57" y="290" as="targetPoint"/>
                    </mxGeometry>
                </mxCell>
                <mxCell id="n1YlAc-bE6uVgi2pLonk-6" value="IOpenLineage" style="text;html=1;align=center;verticalAlign=middle;resizable=0;points=[];autosize=1;strokeColor=none;fillColor=none;fontColor=#000000;" parent="FeYURNxLefExpCW_N5Zf-1" vertex="1">
                    <mxGeometry x="425" y="300" width="90" height="20" as="geometry"/>
                </mxCell>
                <mxCell id="n1YlAc-bE6uVgi2pLonk-7" value="IOpenLineage" style="text;html=1;align=center;verticalAlign=middle;resizable=0;points=[];autosize=1;strokeColor=none;fillColor=none;fontColor=#000000;" parent="FeYURNxLefExpCW_N5Zf-1" vertex="1">
                    <mxGeometry x="290" y="300" width="90" height="20" as="geometry"/>
                </mxCell>
                <mxCell id="n1YlAc-bE6uVgi2pLonk-8" value="IJobRuns" style="text;html=1;align=center;verticalAlign=middle;resizable=0;points=[];autosize=1;strokeColor=none;fillColor=none;" parent="FeYURNxLefExpCW_N5Zf-1" vertex="1">
                    <mxGeometry x="170" y="300" width="70" height="20" as="geometry"/>
                </mxCell>
            </root>
        </mxGraphModel>
    </diagram>
</mxfile>